<svg width="800" height="400" viewBox="0 0 800 400" xmlns="http://www.w3.org/2000/svg"><defs><pattern id="satori_pattern_id_0" x="0" y="0" width="1" height="1" patternUnits="objectBoundingBox"><linearGradient id="satori_biid_0" x1="0" y1="0" x2="0" y2="1"><stop offset="0%" stop-color="#fff1f1"/><stop offset="100%" stop-color="#bd83f7"/></linearGradient><rect x="0" y="0" width="800" height="400" fill="url(#satori_biid_0)"/></pattern></defs><mask id="satori_om-id"><rect x="0" y="0" width="800" height="400" fill="#fff"/></mask><rect x="0" y="0" width="800" height="400" fill="url(#satori_pattern_id_0)"/><clipPath id="satori_bct-id-0"><path d="M218.8 183.2L218.8 139.5L230.2 139.5L242.2 168.8L242.7 168.8L254.7 139.5L266.1 139.5L266.1 183.2L257.1 183.2L257.1 154.8L256.8 154.8L245.5 182.9L239.4 182.9L228.1 154.7L227.7 154.7L227.7 183.2L218.8 183.2ZM286.4 183.8L286.4 183.8Q281.4 183.8 277.7 181.7Q274.1 179.7 272.1 175.9Q270.2 172.1 270.2 166.9L270.2 166.9Q270.2 161.9 272.1 158.1Q274.1 154.3 277.7 152.1Q281.2 150.0 286.1 150.0L286.1 150.0Q289.3 150.0 292.1 151.0Q294.9 152.1 297.0 154.1Q299.1 156.2 300.3 159.3Q301.4 162.5 301.4 166.6L301.4 166.6L301.4 169.1L273.8 169.1L273.8 163.5L292.9 163.5Q292.9 161.5 292.0 160.0Q291.2 158.5 289.7 157.6Q288.2 156.8 286.2 156.8L286.2 156.8Q284.1 156.8 282.6 157.7Q281.0 158.7 280.1 160.3Q279.2 161.9 279.2 163.8L279.2 163.8L279.2 169.1Q279.2 171.6 280.1 173.3Q281.0 175.1 282.6 176.1Q284.3 177.0 286.6 177.0L286.6 177.0Q288.1 177.0 289.3 176.6Q290.6 176.2 291.5 175.3Q292.4 174.5 292.9 173.2L292.9 173.2L301.3 173.8Q300.6 176.8 298.6 179.1Q296.7 181.3 293.6 182.6Q290.5 183.8 286.4 183.8ZM305.4 139.5L314.4 139.5L314.4 183.2L305.4 183.2L305.4 139.5ZM329.0 183.8L329.0 183.8Q325.9 183.8 323.4 182.7Q321.0 181.6 319.6 179.4Q318.2 177.3 318.2 174.0L318.2 174.0Q318.2 171.3 319.2 169.4Q320.2 167.6 321.9 166.5Q323.6 165.3 325.8 164.8Q328.0 164.2 330.4 163.9L330.4 163.9Q333.3 163.6 335.1 163.4Q336.8 163.1 337.6 162.6Q338.4 162.0 338.4 161.0L338.4 161.0L338.4 160.9Q338.4 158.8 337.1 157.7Q335.8 156.6 333.5 156.6L333.5 156.6Q331.1 156.6 329.6 157.7Q328.2 158.8 327.7 160.4L327.7 160.4L319.3 159.7Q319.9 156.7 321.8 154.6Q323.7 152.4 326.7 151.2Q329.6 150.0 333.6 150.0L333.6 150.0Q336.3 150.0 338.8 150.6Q341.3 151.3 343.2 152.6Q345.2 154.0 346.3 156.1Q347.5 158.2 347.5 161.1L347.5 161.1L347.5 183.2L338.8 183.2L338.8 178.6L338.6 178.6Q337.8 180.2 336.5 181.3Q335.2 182.5 333.3 183.1Q331.5 183.8 329.0 183.8ZM331.6 177.5L331.6 177.5Q333.6 177.5 335.2 176.7Q336.7 175.9 337.6 174.6Q338.4 173.2 338.4 171.5L338.4 171.5L338.4 168.0Q338.0 168.3 337.3 168.5Q336.5 168.7 335.6 168.9Q334.7 169.1 333.8 169.2Q332.9 169.4 332.1 169.5L332.1 169.5Q330.5 169.7 329.3 170.2Q328.1 170.7 327.5 171.6Q326.8 172.4 326.8 173.7L326.8 173.7Q326.8 175.6 328.2 176.5Q329.5 177.5 331.6 177.5ZM361.6 164.2L361.6 164.2L361.6 183.2L352.5 183.2L352.5 150.4L361.2 150.4L361.2 156.2L361.5 156.2Q362.6 153.4 365.2 151.7Q367.7 150.0 371.4 150.0L371.4 150.0Q374.8 150.0 377.3 151.5Q379.9 153.0 381.3 155.7Q382.7 158.5 382.7 162.3L382.7 162.3L382.7 183.2L373.6 183.2L373.6 163.9Q373.6 160.9 372.1 159.2Q370.5 157.5 367.8 157.5L367.8 157.5Q365.9 157.5 364.6 158.3Q363.2 159.1 362.4 160.6Q361.6 162.1 361.6 164.2ZM396.9 183.2L387.8 183.2L387.8 150.4L396.9 150.4L396.9 183.2ZM392.4 146.2L392.4 146.2Q390.3 146.2 388.9 144.9Q387.5 143.5 387.5 141.6L387.5 141.6Q387.5 139.7 388.9 138.4Q390.3 137.0 392.4 137.0L392.4 137.0Q394.4 137.0 395.8 138.4Q397.3 139.7 397.3 141.6L397.3 141.6Q397.3 143.5 395.8 144.9Q394.4 146.2 392.4 146.2Z M414.2 183.2L414.2 139.5L425.6 139.5L437.6 168.8L438.1 168.8L450.1 139.5L461.5 139.5L461.5 183.2L452.6 183.2L452.6 154.8L452.2 154.8L440.9 182.9L434.8 182.9L423.5 154.7L423.2 154.7L423.2 183.2L414.2 183.2ZM476.3 183.8L476.3 183.8Q473.1 183.8 470.7 182.7Q468.2 181.6 466.8 179.4Q465.4 177.3 465.4 174.0L465.4 174.0Q465.4 171.3 466.4 169.4Q467.4 167.6 469.1 166.5Q470.9 165.3 473.1 164.8Q475.3 164.2 477.7 163.9L477.7 163.9Q480.5 163.6 482.3 163.4Q484.0 163.1 484.8 162.6Q485.6 162.0 485.6 161.0L485.6 161.0L485.6 160.9Q485.6 158.8 484.4 157.7Q483.1 156.6 480.8 156.6L480.8 156.6Q478.3 156.6 476.9 157.7Q475.4 158.8 474.9 160.4L474.9 160.4L466.5 159.7Q467.2 156.7 469.1 154.6Q470.9 152.4 473.9 151.2Q476.9 150.0 480.8 150.0L480.8 150.0Q483.5 150.0 486.0 150.6Q488.5 151.3 490.5 152.6Q492.4 154.0 493.6 156.1Q494.7 158.2 494.7 161.1L494.7 161.1L494.7 183.2L486.1 183.2L486.1 178.6L485.8 178.6Q485.0 180.2 483.7 181.3Q482.4 182.5 480.5 183.1Q478.7 183.8 476.3 183.8ZM478.9 177.5L478.9 177.5Q480.9 177.5 482.4 176.7Q483.9 175.9 484.8 174.6Q485.7 173.2 485.7 171.5L485.7 171.5L485.7 168.0Q485.3 168.3 484.5 168.5Q483.8 168.7 482.9 168.9Q482.0 169.1 481.0 169.2Q480.1 169.4 479.4 169.5L479.4 169.5Q477.8 169.7 476.6 170.2Q475.4 170.7 474.7 171.6Q474.1 172.4 474.1 173.7L474.1 173.7Q474.1 175.6 475.4 176.5Q476.8 177.5 478.9 177.5ZM508.8 183.2L499.7 183.2L499.7 150.4L508.5 150.4L508.5 156.1L508.9 156.1Q509.8 153.1 511.9 151.5Q514.0 150.0 516.8 150.0L516.8 150.0Q517.4 150.0 518.2 150.0Q519.0 150.1 519.6 150.3L519.6 150.3L519.6 158.3Q519.0 158.1 517.8 158.0Q516.7 157.8 515.8 157.8L515.8 157.8Q513.8 157.8 512.2 158.7Q510.6 159.6 509.7 161.1Q508.8 162.6 508.8 164.6L508.8 164.6L508.8 183.2ZM535.7 183.8L535.7 183.8Q530.6 183.8 527.0 181.7Q523.3 179.7 521.4 175.9Q519.4 172.1 519.4 166.9L519.4 166.9Q519.4 161.9 521.4 158.1Q523.3 154.3 526.9 152.1Q530.5 150.0 535.3 150.0L535.3 150.0Q538.5 150.0 541.3 151.0Q544.1 152.1 546.2 154.1Q548.3 156.2 549.5 159.3Q550.7 162.5 550.7 166.6L550.7 166.6L550.7 169.1L523.0 169.1L523.0 163.5L542.1 163.5Q542.1 161.5 541.3 160.0Q540.4 158.5 538.9 157.6Q537.4 156.8 535.4 156.8L535.4 156.8Q533.4 156.8 531.8 157.7Q530.2 158.7 529.3 160.3Q528.4 161.9 528.4 163.8L528.4 163.8L528.4 169.1Q528.4 171.6 529.3 173.3Q530.2 175.1 531.9 176.1Q533.5 177.0 535.8 177.0L535.8 177.0Q537.3 177.0 538.6 176.6Q539.8 176.2 540.7 175.3Q541.6 174.5 542.1 173.2L542.1 173.2L550.5 173.8Q549.8 176.8 547.9 179.1Q545.9 181.3 542.8 182.6Q539.7 183.8 535.7 183.8ZM581.8 159.8L581.8 159.8L573.5 160.3Q573.3 159.2 572.6 158.3Q571.9 157.5 570.8 157.0Q569.6 156.4 568.0 156.4L568.0 156.4Q565.9 156.4 564.5 157.3Q563.0 158.2 563.0 159.7L563.0 159.7Q563.0 160.9 564.0 161.7Q564.9 162.5 567.2 163.0L567.2 163.0L573.1 164.2Q577.9 165.1 580.2 167.3Q582.6 169.5 582.6 173.0L582.6 173.0Q582.6 176.2 580.7 178.7Q578.8 181.1 575.5 182.4Q572.3 183.8 568.0 183.8L568.0 183.8Q561.5 183.8 557.7 181.1Q553.8 178.4 553.1 173.7L553.1 173.7L562.1 173.2Q562.5 175.2 564.0 176.2Q565.6 177.3 568.0 177.3L568.0 177.3Q570.4 177.3 571.9 176.3Q573.3 175.4 573.3 173.9L573.3 173.9Q573.3 172.7 572.3 171.9Q571.3 171.1 569.2 170.7L569.2 170.7L563.5 169.5Q558.7 168.6 556.4 166.2Q554.0 163.9 554.0 160.2L554.0 160.2Q554.0 157.0 555.7 154.8Q557.5 152.5 560.6 151.2Q563.7 150.0 567.9 150.0L567.9 150.0Q574.1 150.0 577.7 152.6Q581.2 155.2 581.8 159.8Z "/></clipPath><defs><pattern id="satori_pattern_id-0_0" x="0" y="0" width="1" height="1" patternUnits="objectBoundingBox"><linearGradient id="satori_biid-0_0" x1="0" y1="0" x2="1" y2="0"><stop offset="0%" stop-color="rgb(121,40,202)"/><stop offset="100%" stop-color="rgb(255,0,128)"/></linearGradient><rect x="0" y="0" width="370" height="73" fill="url(#satori_biid-0_0)"/></pattern></defs><mask id="satori_om-id-0"><rect x="215" y="127" width="370" height="73" fill="#fff"/></mask><rect x="215" y="127" width="370" height="73" fill="url(#satori_pattern_id-0_0)" clip-path="url(#satori_bct-id-0)"/><clipPath id="satori_bct-id-1"><path d="M68.0 256.2L58.8 256.2L58.8 212.5L87.7 212.5L87.7 220.1L68.0 220.1L68.0 230.5L85.8 230.5L85.8 238.1L68.0 238.1L68.0 256.2ZM100.2 256.2L91.2 256.2L91.2 223.4L100.0 223.4L100.0 229.1L100.3 229.1Q101.2 226.1 103.3 224.5Q105.4 223.0 108.2 223.0L108.2 223.0Q108.8 223.0 109.6 223.0Q110.4 223.1 111.0 223.3L111.0 223.3L111.0 231.3Q110.4 231.1 109.3 231.0Q108.1 230.8 107.2 230.8L107.2 230.8Q105.2 230.8 103.6 231.7Q102.0 232.6 101.1 234.1Q100.2 235.6 100.2 237.6L100.2 237.6L100.2 256.2ZM126.9 256.8L126.9 256.8Q122.0 256.8 118.4 254.7Q114.8 252.6 112.8 248.8Q110.8 245.0 110.8 239.9L110.8 239.9Q110.8 234.9 112.8 231.1Q114.8 227.2 118.4 225.1Q122.0 223.0 126.9 223.0L126.9 223.0Q131.9 223.0 135.5 225.1Q139.1 227.2 141.1 231.1Q143.0 234.9 143.0 239.9L143.0 239.9Q143.0 245.0 141.1 248.8Q139.1 252.6 135.5 254.7Q131.9 256.8 126.9 256.8ZM127.0 249.8L127.0 249.8Q129.2 249.8 130.8 248.5Q132.3 247.2 133.0 245.0Q133.8 242.7 133.8 239.9L133.8 239.9Q133.8 237.0 133.0 234.8Q132.3 232.5 130.8 231.2Q129.2 229.9 127.0 229.9L127.0 229.9Q124.7 229.9 123.2 231.2Q121.6 232.5 120.8 234.8Q120.1 237.0 120.1 239.9L120.1 239.9Q120.1 242.7 120.8 245.0Q121.6 247.2 123.2 248.5Q124.7 249.8 127.0 249.8ZM156.0 237.2L156.0 237.2L156.0 256.2L147.0 256.2L147.0 223.4L155.6 223.4L155.6 229.2L156.0 229.2Q157.1 226.4 159.6 224.7Q162.2 223.0 165.8 223.0L165.8 223.0Q169.3 223.0 171.8 224.5Q174.3 226.0 175.7 228.7Q177.1 231.5 177.1 235.3L177.1 235.3L177.1 256.2L168.1 256.2L168.1 236.9Q168.1 233.9 166.5 232.2Q165.0 230.5 162.2 230.5L162.2 230.5Q160.4 230.5 159.0 231.3Q157.6 232.1 156.8 233.6Q156.1 235.1 156.0 237.2ZM180.0 223.4L199.7 223.4L199.7 230.3L180.0 230.3L180.0 223.4ZM184.5 247.3L184.5 215.6L193.5 215.6L193.5 246.1Q193.5 247.4 193.9 248.1Q194.3 248.7 195.0 249.0Q195.7 249.3 196.6 249.3L196.6 249.3Q197.2 249.3 197.9 249.2Q198.5 249.1 198.9 249.0L198.9 249.0L200.3 255.8Q199.6 256.0 198.4 256.3Q197.1 256.5 195.4 256.6L195.4 256.6Q192.1 256.7 189.6 255.7Q187.2 254.7 185.8 252.6Q184.4 250.5 184.5 247.3L184.5 247.3ZM218.2 256.8L218.2 256.8Q213.1 256.8 209.5 254.7Q205.8 252.7 203.9 248.9Q201.9 245.1 201.9 239.9L201.9 239.9Q201.9 234.9 203.9 231.1Q205.8 227.3 209.4 225.1Q213.0 223.0 217.8 223.0L217.8 223.0Q221.0 223.0 223.8 224.0Q226.6 225.1 228.7 227.1Q230.8 229.2 232.0 232.3Q233.2 235.5 233.2 239.6L233.2 239.6L233.2 242.1L205.5 242.1L205.5 236.5L224.6 236.5Q224.6 234.5 223.8 233.0Q222.9 231.5 221.4 230.6Q219.9 229.8 217.9 229.8L217.9 229.8Q215.9 229.8 214.3 230.7Q212.7 231.7 211.8 233.3Q210.9 234.9 210.9 236.8L210.9 236.8L210.9 242.1Q210.9 244.6 211.8 246.3Q212.7 248.1 214.4 249.1Q216.0 250.0 218.3 250.0L218.3 250.0Q219.8 250.0 221.1 249.6Q222.3 249.2 223.2 248.3Q224.1 247.5 224.6 246.2L224.6 246.2L233.0 246.8Q232.4 249.8 230.4 252.1Q228.4 254.3 225.3 255.6Q222.2 256.8 218.2 256.8ZM246.2 237.2L246.2 237.2L246.2 256.2L237.1 256.2L237.1 223.4L245.8 223.4L245.8 229.2L246.1 229.2Q247.2 226.4 249.8 224.7Q252.3 223.0 256.0 223.0L256.0 223.0Q259.4 223.0 261.9 224.5Q264.5 226.0 265.9 228.7Q267.3 231.5 267.3 235.3L267.3 235.3L267.3 256.2L258.2 256.2L258.2 236.9Q258.2 233.9 256.7 232.2Q255.1 230.5 252.4 230.5L252.4 230.5Q250.5 230.5 249.2 231.3Q247.8 232.1 247.0 233.6Q246.2 235.1 246.2 237.2ZM284.5 256.7L284.5 256.7Q280.7 256.7 277.7 254.8Q274.7 252.8 273.0 249.1Q271.2 245.3 271.2 239.8L271.2 239.8Q271.2 234.2 273.0 230.5Q274.8 226.7 277.8 224.9Q280.9 223.0 284.5 223.0L284.5 223.0Q287.2 223.0 289.0 223.9Q290.9 224.9 292.0 226.2Q293.2 227.6 293.8 228.9L293.8 228.9L294.0 228.9L294.0 212.5L303.1 212.5L303.1 256.2L294.1 256.2L294.1 250.9L293.8 250.9Q293.1 252.3 292.0 253.6Q290.8 254.9 289.0 255.8Q287.1 256.7 284.5 256.7ZM287.3 249.5L287.3 249.5Q289.5 249.5 291.1 248.3Q292.6 247.1 293.4 244.9Q294.2 242.7 294.2 239.8L294.2 239.8Q294.2 236.9 293.4 234.7Q292.6 232.6 291.1 231.4Q289.5 230.2 287.3 230.2L287.3 230.2Q285.1 230.2 283.6 231.4Q282.0 232.7 281.3 234.8Q280.5 237.0 280.5 239.8L280.5 239.8Q280.5 242.7 281.3 244.8Q282.1 247.0 283.6 248.2Q285.1 249.5 287.3 249.5Z M341.9 256.2L332.9 256.2L320.4 212.5L330.5 212.5L337.7 242.8L338.0 242.8L346.0 212.5L354.6 212.5L362.6 242.9L363.0 242.9L370.2 212.5L380.3 212.5L367.8 256.2L358.8 256.2L350.5 227.6L350.1 227.6L341.9 256.2ZM394.4 256.8L394.4 256.8Q389.4 256.8 385.7 254.7Q382.1 252.7 380.1 248.9Q378.2 245.1 378.2 239.9L378.2 239.9Q378.2 234.9 380.1 231.1Q382.1 227.3 385.7 225.1Q389.2 223.0 394.0 223.0L394.0 223.0Q397.3 223.0 400.1 224.0Q402.9 225.1 405.0 227.1Q407.1 229.2 408.3 232.3Q409.4 235.5 409.4 239.6L409.4 239.6L409.4 242.1L381.8 242.1L381.8 236.5L400.9 236.5Q400.9 234.5 400.0 233.0Q399.2 231.5 397.7 230.6Q396.2 229.8 394.2 229.8L394.2 229.8Q392.1 229.8 390.5 230.7Q388.9 231.7 388.1 233.3Q387.2 234.9 387.1 236.8L387.1 236.8L387.1 242.1Q387.1 244.6 388.0 246.3Q388.9 248.1 390.6 249.1Q392.3 250.0 394.6 250.0L394.6 250.0Q396.1 250.0 397.3 249.6Q398.6 249.2 399.5 248.3Q400.4 247.5 400.8 246.2L400.8 246.2L409.2 246.8Q408.6 249.8 406.6 252.1Q404.7 254.3 401.6 255.6Q398.5 256.8 394.4 256.8ZM422.5 256.2L413.5 256.2L413.5 212.5L422.6 212.5L422.6 228.9L422.9 228.9Q423.5 227.6 424.6 226.2Q425.7 224.9 427.6 223.9Q429.4 223.0 432.2 223.0L432.2 223.0Q435.8 223.0 438.8 224.9Q441.8 226.7 443.6 230.5Q445.4 234.2 445.4 239.8L445.4 239.8Q445.4 245.3 443.7 249.1Q441.9 252.8 438.9 254.8Q435.9 256.7 432.2 256.7L432.2 256.7Q429.5 256.7 427.7 255.8Q425.8 254.9 424.7 253.6Q423.5 252.3 422.9 250.9L422.9 250.9L422.5 250.9L422.5 256.2ZM422.4 239.8L422.4 239.8Q422.4 242.7 423.2 244.9Q424.0 247.1 425.6 248.3Q427.1 249.5 429.3 249.5L429.3 249.5Q431.5 249.5 433.0 248.2Q434.6 247.0 435.4 244.8Q436.2 242.7 436.2 239.8L436.2 239.8Q436.2 237.0 435.4 234.8Q434.6 232.7 433.1 231.4Q431.5 230.2 429.3 230.2L429.3 230.2Q427.1 230.2 425.5 231.4Q424.0 232.6 423.2 234.7Q422.4 236.9 422.4 239.8Z M480.6 256.2L480.6 256.2L465.1 256.2L465.1 212.5L480.7 212.5Q487.3 212.5 492.0 215.1Q496.8 217.7 499.3 222.6Q501.9 227.5 501.9 234.3L501.9 234.3Q501.9 241.1 499.3 246.0Q496.8 250.9 492.0 253.5Q487.2 256.2 480.6 256.2ZM474.3 220.4L474.3 248.3L480.2 248.3Q484.3 248.3 487.1 246.8Q489.9 245.3 491.3 242.3Q492.7 239.2 492.7 234.3L492.7 234.3Q492.7 229.5 491.3 226.4Q489.9 223.3 487.1 221.9Q484.3 220.4 480.2 220.4L480.2 220.4L474.3 220.4ZM521.5 256.8L521.5 256.8Q516.4 256.8 512.8 254.7Q509.2 252.7 507.2 248.9Q505.2 245.1 505.2 239.9L505.2 239.9Q505.2 234.9 507.2 231.1Q509.2 227.3 512.7 225.1Q516.3 223.0 521.1 223.0L521.1 223.0Q524.3 223.0 527.1 224.0Q529.9 225.1 532.0 227.1Q534.1 229.2 535.3 232.3Q536.5 235.5 536.5 239.6L536.5 239.6L536.5 242.1L508.9 242.1L508.9 236.5L527.9 236.5Q527.9 234.5 527.1 233.0Q526.2 231.5 524.7 230.6Q523.2 229.8 521.3 229.8L521.3 229.8Q519.2 229.8 517.6 230.7Q516.0 231.7 515.1 233.3Q514.2 234.9 514.2 236.8L514.2 236.8L514.2 242.1Q514.2 244.6 515.1 246.3Q516.0 248.1 517.7 249.1Q519.3 250.0 521.6 250.0L521.6 250.0Q523.1 250.0 524.4 249.6Q525.6 249.2 526.5 248.3Q527.4 247.5 527.9 246.2L527.9 246.2L536.3 246.8Q535.7 249.8 533.7 252.1Q531.7 254.3 528.6 255.6Q525.5 256.8 521.5 256.8ZM560.4 223.4L570.0 223.4L558.6 256.2L548.3 256.2L536.9 223.4L546.5 223.4L553.3 246.8L553.6 246.8L560.4 223.4ZM586.5 256.8L586.5 256.8Q581.4 256.8 577.8 254.7Q574.2 252.7 572.2 248.9Q570.2 245.1 570.2 239.9L570.2 239.9Q570.2 234.9 572.2 231.1Q574.2 227.3 577.7 225.1Q581.3 223.0 586.1 223.0L586.1 223.0Q589.4 223.0 592.2 224.0Q595.0 225.1 597.1 227.1Q599.2 229.2 600.3 232.3Q601.5 235.5 601.5 239.6L601.5 239.6L601.5 242.1L573.9 242.1L573.9 236.5L593.0 236.5Q593.0 234.5 592.1 233.0Q591.3 231.5 589.8 230.6Q588.2 229.8 586.3 229.8L586.3 229.8Q584.2 229.8 582.6 230.7Q581.0 231.7 580.1 233.3Q579.2 234.9 579.2 236.8L579.2 236.8L579.2 242.1Q579.2 244.6 580.1 246.3Q581.0 248.1 582.7 249.1Q584.3 250.0 586.6 250.0L586.6 250.0Q588.1 250.0 589.4 249.6Q590.7 249.2 591.6 248.3Q592.4 247.5 592.9 246.2L592.9 246.2L601.3 246.8Q600.7 249.8 598.7 252.1Q596.7 254.3 593.6 255.6Q590.5 256.8 586.5 256.8ZM605.4 212.5L614.5 212.5L614.5 256.2L605.4 256.2L605.4 212.5ZM634.5 256.8L634.5 256.8Q629.6 256.8 626.0 254.7Q622.3 252.6 620.4 248.8Q618.4 245.0 618.4 239.9L618.4 239.9Q618.4 234.9 620.4 231.1Q622.3 227.2 626.0 225.1Q629.6 223.0 634.5 223.0L634.5 223.0Q639.5 223.0 643.1 225.1Q646.7 227.2 648.7 231.1Q650.6 234.9 650.6 239.9L650.6 239.9Q650.6 245.0 648.7 248.8Q646.7 252.6 643.1 254.7Q639.5 256.8 634.5 256.8ZM634.6 249.8L634.6 249.8Q636.8 249.8 638.3 248.5Q639.9 247.2 640.6 245.0Q641.4 242.7 641.4 239.9L641.4 239.9Q641.4 237.0 640.6 234.8Q639.9 232.5 638.3 231.2Q636.8 229.9 634.6 229.9L634.6 229.9Q632.3 229.9 630.8 231.2Q629.2 232.5 628.4 234.8Q627.7 237.0 627.7 239.9L627.7 239.9Q627.7 242.7 628.4 245.0Q629.2 247.2 630.8 248.5Q632.3 249.8 634.6 249.8ZM663.6 268.4L654.6 268.4L654.6 223.4L663.5 223.4L663.5 228.9L663.9 228.9Q664.5 227.6 665.7 226.2Q666.8 224.9 668.6 223.9Q670.5 223.0 673.2 223.0L673.2 223.0Q676.8 223.0 679.8 224.9Q682.9 226.7 684.7 230.5Q686.5 234.2 686.5 239.8L686.5 239.8Q686.5 245.3 684.7 249.1Q683.0 252.8 680.0 254.8Q676.9 256.7 673.2 256.7L673.2 256.7Q670.6 256.7 668.7 255.8Q666.9 254.9 665.7 253.6Q664.5 252.3 663.9 250.9L663.9 250.9L663.6 250.9L663.6 268.4ZM663.4 239.8L663.4 239.8Q663.4 242.7 664.3 244.9Q665.1 247.1 666.6 248.3Q668.1 249.5 670.3 249.5L670.3 249.5Q672.5 249.5 674.1 248.2Q675.6 247.0 676.4 244.8Q677.2 242.7 677.2 239.8L677.2 239.8Q677.2 237.0 676.4 234.8Q675.6 232.7 674.1 231.4Q672.6 230.2 670.3 230.2L670.3 230.2Q668.1 230.2 666.6 231.4Q665.1 232.6 664.3 234.7Q663.4 236.9 663.4 239.8ZM705.4 256.8L705.4 256.8Q700.4 256.8 696.7 254.7Q693.1 252.7 691.2 248.9Q689.2 245.1 689.2 239.9L689.2 239.9Q689.2 234.9 691.2 231.1Q693.1 227.3 696.7 225.1Q700.2 223.0 705.1 223.0L705.1 223.0Q708.3 223.0 711.1 224.0Q713.9 225.1 716.0 227.1Q718.1 229.2 719.3 232.3Q720.4 235.5 720.4 239.6L720.4 239.6L720.4 242.1L692.8 242.1L692.8 236.5L711.9 236.5Q711.9 234.5 711.1 233.0Q710.2 231.5 708.7 230.6Q707.2 229.8 705.2 229.8L705.2 229.8Q703.1 229.8 701.6 230.7Q700.0 231.7 699.1 233.3Q698.2 234.9 698.2 236.8L698.2 236.8L698.2 242.1Q698.2 244.6 699.1 246.3Q700.0 248.1 701.6 249.1Q703.3 250.0 705.6 250.0L705.6 250.0Q707.1 250.0 708.3 249.6Q709.6 249.2 710.5 248.3Q711.4 247.5 711.9 246.2L711.9 246.2L720.3 246.8Q719.6 249.8 717.6 252.1Q715.7 254.3 712.6 255.6Q709.5 256.8 705.4 256.8ZM733.4 256.2L724.4 256.2L724.4 223.4L733.2 223.4L733.2 229.1L733.5 229.1Q734.4 226.1 736.5 224.5Q738.6 223.0 741.4 223.0L741.4 223.0Q742.1 223.0 742.8 223.0Q743.6 223.1 744.2 223.3L744.2 223.3L744.2 231.3Q743.6 231.1 742.5 231.0Q741.3 230.8 740.4 230.8L740.4 230.8Q738.4 230.8 736.8 231.7Q735.3 232.6 734.4 234.1Q733.4 235.6 733.4 237.6L733.4 237.6L733.4 256.2Z "/></clipPath><defs><pattern id="satori_pattern_id-1_0" x="0" y="0" width="1" height="1" patternUnits="objectBoundingBox"><linearGradient id="satori_biid-1_0" x1="0" y1="0" x2="1" y2="0"><stop offset="0%" stop-color="rgb(255,0,128)"/><stop offset="100%" stop-color="rgb(121,40,202)"/></linearGradient><rect x="0" y="0" width="691" height="73" fill="url(#satori_biid-1_0)"/></pattern></defs><mask id="satori_om-id-1"><rect x="55" y="200" width="691" height="73" fill="#fff"/></mask><rect x="55" y="200" width="691" height="73" fill="url(#satori_pattern_id-1_0)" clip-path="url(#satori_bct-id-1)"/></svg>